<mxfile host="Electron" modified="2024-02-12T01:08:59.727Z" agent="Mozilla/5.0 (Windows NT 10.0; Win64; x64) AppleWebKit/537.36 (KHTML, like Gecko) draw.io/22.1.16 Chrome/120.0.6099.109 Electron/28.1.0 Safari/537.36" etag="v5ZFlyIqyAofzh2uD_Tv" version="22.1.16" type="device">
  <diagram name="Page-1" id="ehdPiyqxMJV0R2JvWMtR">
    <mxGraphModel dx="913" dy="987" grid="1" gridSize="10" guides="1" tooltips="1" connect="1" arrows="1" fold="1" page="1" pageScale="1" pageWidth="850" pageHeight="1100" math="0" shadow="0">
      <root>
        <mxCell id="0" />
        <mxCell id="1" parent="0" />
        <mxCell id="UiS4OA_6uF6ZHv4qu5Fb-8" style="edgeStyle=orthogonalEdgeStyle;rounded=0;orthogonalLoop=1;jettySize=auto;html=1;" edge="1" parent="1" source="UiS4OA_6uF6ZHv4qu5Fb-1" target="UiS4OA_6uF6ZHv4qu5Fb-2">
          <mxGeometry relative="1" as="geometry" />
        </mxCell>
        <mxCell id="UiS4OA_6uF6ZHv4qu5Fb-9" value="Many requests" style="edgeStyle=orthogonalEdgeStyle;rounded=0;orthogonalLoop=1;jettySize=auto;html=1;" edge="1" parent="1" source="UiS4OA_6uF6ZHv4qu5Fb-1" target="UiS4OA_6uF6ZHv4qu5Fb-4">
          <mxGeometry x="0.4205" relative="1" as="geometry">
            <mxPoint as="offset" />
          </mxGeometry>
        </mxCell>
        <mxCell id="UiS4OA_6uF6ZHv4qu5Fb-1" value="Client / Application" style="sketch=0;outlineConnect=0;fontColor=#232F3E;gradientColor=none;fillColor=#232F3D;strokeColor=none;dashed=0;verticalLabelPosition=bottom;verticalAlign=top;align=center;html=1;fontSize=12;fontStyle=0;aspect=fixed;pointerEvents=1;shape=mxgraph.aws4.client;" vertex="1" parent="1">
          <mxGeometry x="510" y="380" width="78" height="76" as="geometry" />
        </mxCell>
        <mxCell id="UiS4OA_6uF6ZHv4qu5Fb-11" style="edgeStyle=orthogonalEdgeStyle;rounded=0;orthogonalLoop=1;jettySize=auto;html=1;" edge="1" parent="1" source="UiS4OA_6uF6ZHv4qu5Fb-2" target="UiS4OA_6uF6ZHv4qu5Fb-6">
          <mxGeometry relative="1" as="geometry" />
        </mxCell>
        <mxCell id="UiS4OA_6uF6ZHv4qu5Fb-2" value="Writer endpoint" style="rounded=0;whiteSpace=wrap;html=1;fillColor=#d5e8d4;strokeColor=#82b366;" vertex="1" parent="1">
          <mxGeometry x="260" y="515" width="210" height="30" as="geometry" />
        </mxCell>
        <mxCell id="UiS4OA_6uF6ZHv4qu5Fb-4" value="Reader endpoint" style="rounded=0;whiteSpace=wrap;html=1;fillColor=#dae8fc;strokeColor=#6c8ebf;" vertex="1" parent="1">
          <mxGeometry x="610" y="515" width="210" height="30" as="geometry" />
        </mxCell>
        <mxCell id="UiS4OA_6uF6ZHv4qu5Fb-6" value="Writer" style="sketch=0;outlineConnect=0;fontColor=#232F3E;gradientColor=none;fillColor=#C925D1;strokeColor=none;dashed=0;verticalLabelPosition=bottom;verticalAlign=top;align=center;html=1;fontSize=12;fontStyle=0;aspect=fixed;pointerEvents=1;shape=mxgraph.aws4.aurora_instance;" vertex="1" parent="1">
          <mxGeometry x="326" y="580" width="78" height="78" as="geometry" />
        </mxCell>
        <mxCell id="UiS4OA_6uF6ZHv4qu5Fb-15" style="edgeStyle=orthogonalEdgeStyle;rounded=0;orthogonalLoop=1;jettySize=auto;html=1;entryX=0.25;entryY=1;entryDx=0;entryDy=0;" edge="1" parent="1" source="UiS4OA_6uF6ZHv4qu5Fb-14" target="UiS4OA_6uF6ZHv4qu5Fb-4">
          <mxGeometry relative="1" as="geometry" />
        </mxCell>
        <mxCell id="UiS4OA_6uF6ZHv4qu5Fb-14" value="Reader" style="sketch=0;outlineConnect=0;fontColor=#232F3E;gradientColor=none;fillColor=#C925D1;strokeColor=none;dashed=0;verticalLabelPosition=bottom;verticalAlign=top;align=center;html=1;fontSize=12;fontStyle=0;aspect=fixed;pointerEvents=1;shape=mxgraph.aws4.aurora_instance;" vertex="1" parent="1">
          <mxGeometry x="623" y="590" width="78" height="78" as="geometry" />
        </mxCell>
        <mxCell id="UiS4OA_6uF6ZHv4qu5Fb-16" value="Reader" style="sketch=0;outlineConnect=0;fontColor=#232F3E;gradientColor=none;fillColor=#C925D1;strokeColor=none;dashed=0;verticalLabelPosition=bottom;verticalAlign=top;align=center;html=1;fontSize=12;fontStyle=0;aspect=fixed;pointerEvents=1;shape=mxgraph.aws4.aurora_instance;" vertex="1" parent="1">
          <mxGeometry x="725" y="590" width="78" height="78" as="geometry" />
        </mxCell>
        <mxCell id="UiS4OA_6uF6ZHv4qu5Fb-17" style="edgeStyle=orthogonalEdgeStyle;rounded=0;orthogonalLoop=1;jettySize=auto;html=1;entryX=0.733;entryY=1.105;entryDx=0;entryDy=0;entryPerimeter=0;" edge="1" parent="1" source="UiS4OA_6uF6ZHv4qu5Fb-16" target="UiS4OA_6uF6ZHv4qu5Fb-4">
          <mxGeometry relative="1" as="geometry" />
        </mxCell>
        <mxCell id="UiS4OA_6uF6ZHv4qu5Fb-21" value="Endpoint extended" style="rounded=0;whiteSpace=wrap;html=1;fillColor=#dae8fc;strokeColor=#6c8ebf;dashed=1;" vertex="1" parent="1">
          <mxGeometry x="820" y="515" width="210" height="30" as="geometry" />
        </mxCell>
        <mxCell id="UiS4OA_6uF6ZHv4qu5Fb-22" style="edgeStyle=orthogonalEdgeStyle;rounded=0;orthogonalLoop=1;jettySize=auto;html=1;entryX=0.25;entryY=1;entryDx=0;entryDy=0;" edge="1" parent="1" source="UiS4OA_6uF6ZHv4qu5Fb-23" target="UiS4OA_6uF6ZHv4qu5Fb-21">
          <mxGeometry relative="1" as="geometry" />
        </mxCell>
        <mxCell id="UiS4OA_6uF6ZHv4qu5Fb-23" value="Reader" style="sketch=0;outlineConnect=0;fontColor=#232F3E;gradientColor=none;fillColor=#C925D1;strokeColor=none;dashed=0;verticalLabelPosition=bottom;verticalAlign=top;align=center;html=1;fontSize=12;fontStyle=0;aspect=fixed;pointerEvents=1;shape=mxgraph.aws4.aurora_instance;" vertex="1" parent="1">
          <mxGeometry x="833" y="590" width="78" height="78" as="geometry" />
        </mxCell>
        <mxCell id="UiS4OA_6uF6ZHv4qu5Fb-24" value="Reader" style="sketch=0;outlineConnect=0;fontColor=#232F3E;gradientColor=none;fillColor=#C925D1;strokeColor=none;dashed=0;verticalLabelPosition=bottom;verticalAlign=top;align=center;html=1;fontSize=12;fontStyle=0;aspect=fixed;pointerEvents=1;shape=mxgraph.aws4.aurora_instance;" vertex="1" parent="1">
          <mxGeometry x="935" y="590" width="78" height="78" as="geometry" />
        </mxCell>
        <mxCell id="UiS4OA_6uF6ZHv4qu5Fb-25" style="edgeStyle=orthogonalEdgeStyle;rounded=0;orthogonalLoop=1;jettySize=auto;html=1;entryX=0.733;entryY=1.105;entryDx=0;entryDy=0;entryPerimeter=0;" edge="1" parent="1" source="UiS4OA_6uF6ZHv4qu5Fb-24" target="UiS4OA_6uF6ZHv4qu5Fb-21">
          <mxGeometry relative="1" as="geometry" />
        </mxCell>
        <mxCell id="UiS4OA_6uF6ZHv4qu5Fb-26" value="" style="editableCssRules=.*;html=1;shape=image;verticalLabelPosition=bottom;labelBackgroundColor=#ffffff;verticalAlign=top;aspect=fixed;imageAspect=0;image=data:image/svg+xml,PHN2ZyB4bWxucz0iaHR0cDovL3d3dy53My5vcmcvMjAwMC9zdmciIHhtbG5zOnY9Imh0dHBzOi8vdmVjdGEuaW8vbmFubyIgd2lkdGg9IjE3IiBoZWlnaHQ9IjE1IiB2aWV3Qm94PSIwIDAgMTcgMTUiPiYjeGE7CTxzdHlsZSB0eXBlPSJ0ZXh0L2NzcyI+JiN4YTsJLnN0MHtmaWxsOiM0Mjg1ZjQ7fSYjeGE7CTwvc3R5bGU+JiN4YTsJPHBhdGggY2xhc3M9InN0MCIgZD0iTTIgN2gxNEw5IDB6bTcuNSAySDZ2NmgxLjV2LTJoMmExLjU0IDEuNTQgMCAwIDAgMS41LTEuNXYtMUExLjU0IDEuNTQgMCAwIDAgOS41IDl6bTAgMi41aC0ydi0xaDJ6bS00LjUtMVY5SDEuNUExLjU0IDEuNTQgMCAwIDAgMCAxMC41djNBMS41NCAxLjU0IDAgMCAwIDEuNSAxNUg1di0xLjVIMS41di0zek0xNS41IDl2NC41aC0yVjlIMTJ2NC41YTEuNTQgMS41NCAwIDAgMCAxLjUgMS41aDJhMS41NCAxLjU0IDAgMCAwIDEuNS0xLjVWOXoiLz4mI3hhOzwvc3ZnPg==;" vertex="1" parent="1">
          <mxGeometry x="630" y="628" width="34" height="30" as="geometry" />
        </mxCell>
        <mxCell id="UiS4OA_6uF6ZHv4qu5Fb-27" value="" style="editableCssRules=.*;html=1;shape=image;verticalLabelPosition=bottom;labelBackgroundColor=#ffffff;verticalAlign=top;aspect=fixed;imageAspect=0;image=data:image/svg+xml,PHN2ZyB4bWxucz0iaHR0cDovL3d3dy53My5vcmcvMjAwMC9zdmciIHhtbG5zOnY9Imh0dHBzOi8vdmVjdGEuaW8vbmFubyIgd2lkdGg9IjE3IiBoZWlnaHQ9IjE1IiB2aWV3Qm94PSIwIDAgMTcgMTUiPiYjeGE7CTxzdHlsZSB0eXBlPSJ0ZXh0L2NzcyI+JiN4YTsJLnN0MHtmaWxsOiM0Mjg1ZjQ7fSYjeGE7CTwvc3R5bGU+JiN4YTsJPHBhdGggY2xhc3M9InN0MCIgZD0iTTIgN2gxNEw5IDB6bTcuNSAySDZ2NmgxLjV2LTJoMmExLjU0IDEuNTQgMCAwIDAgMS41LTEuNXYtMUExLjU0IDEuNTQgMCAwIDAgOS41IDl6bTAgMi41aC0ydi0xaDJ6bS00LjUtMVY5SDEuNUExLjU0IDEuNTQgMCAwIDAgMCAxMC41djNBMS41NCAxLjU0IDAgMCAwIDEuNSAxNUg1di0xLjVIMS41di0zek0xNS41IDl2NC41aC0yVjlIMTJ2NC41YTEuNTQgMS41NCAwIDAgMCAxLjUgMS41aDJhMS41NCAxLjU0IDAgMCAwIDEuNS0xLjVWOXoiLz4mI3hhOzwvc3ZnPg==;" vertex="1" parent="1">
          <mxGeometry x="730" y="628" width="34" height="30" as="geometry" />
        </mxCell>
        <mxCell id="UiS4OA_6uF6ZHv4qu5Fb-28" value="Replicas Auto Scaling" style="shape=flexArrow;endArrow=classic;html=1;rounded=0;strokeWidth=1;width=16;fillColor=#dae8fc;strokeColor=#6c8ebf;labelBackgroundColor=none;" edge="1" parent="1">
          <mxGeometry width="50" height="50" relative="1" as="geometry">
            <mxPoint x="610" y="710" as="sourcePoint" />
            <mxPoint x="1030" y="710" as="targetPoint" />
          </mxGeometry>
        </mxCell>
        <mxCell id="UiS4OA_6uF6ZHv4qu5Fb-29" value="Shared Storage Volume" style="shape=flexArrow;endArrow=classic;startArrow=classic;html=1;rounded=0;width=18;fillColor=#000000;strokeColor=none;fontStyle=1;fontSize=14;labelBackgroundColor=none;fontColor=#ffffff;" edge="1" parent="1">
          <mxGeometry width="100" height="100" relative="1" as="geometry">
            <mxPoint x="260" y="760" as="sourcePoint" />
            <mxPoint x="1030" y="760" as="targetPoint" />
          </mxGeometry>
        </mxCell>
      </root>
    </mxGraphModel>
  </diagram>
</mxfile>
